<svg xmlns="http://www.w3.org/2000/svg" viewBox="0 0 24 24" fill="none">
  <rect x="3" y="3" width="18" height="18" rx="2.5" fill="#fff"/>
  <path d="M3 5.5C3 4.12 4.12 3 5.5 3H8V7H3V5.5Z" fill="#4285F4"/>
  <rect x="8" y="3" width="8" height="4" fill="#EA4335"/>
  <path d="M16 3h2.5C19.88 3 21 4.12 21 5.5V7h-5V3Z" fill="#EA4335"/>
  <rect x="3" y="7" width="5" height="5" fill="#4285F4"/>
  <rect x="8" y="7" width="8" height="5" fill="#fff"/>
  <rect x="16" y="7" width="5" height="5" fill="#FBBC04"/>
  <path d="M3 12v6.5C3 19.88 4.12 21 5.5 21H8v-9H3Z" fill="#34A853"/>
  <rect x="8" y="12" width="8" height="9" fill="#188038"/>
  <path d="M16 12v9h2.5c1.38 0 2.5-1.12 2.5-2.5V12h-5Z" fill="#34A853"/>
  <text x="12" y="15.5" text-anchor="middle" font-family="Arial,Helvetica,sans-serif" font-size="7" font-weight="700" fill="#4285F4">31</text>
</svg>
